<mxfile host="app.diagrams.net" modified="2024-04-03T18:47:10.307Z" agent="Mozilla/5.0 (Windows NT 10.0; Win64; x64) AppleWebKit/537.36 (KHTML, like Gecko) Chrome/123.0.0.0 Safari/537.36" version="24.0.7" etag="vng3iHrg30IINXDEBeIO" type="github">
  <diagram name="第 1 页" id="WFMPbgKyQ-aQg4Z8mRCX">
    <mxGraphModel>
      <root>
        <mxCell id="0" />
        <mxCell id="1" parent="0" />
      </root>
    </mxGraphModel>
  </diagram>
</mxfile>
